HIERARCHY
ROOT pelvis
{
  OFFSET 0 100 0
  CHANNELS 6 Xposition Yposition Zposition Zrotation Xrotation Yrotation
  JOINT pelvis_right_femur
  {
    OFFSET -10.78128 -3.44521 -0.5502486
    CHANNELS 3 Zrotation Xrotation Yrotation
    JOINT right_femur_tibia
    {
      OFFSET -0.8047443 -44.0398 -0.1307829
      CHANNELS 3 Zrotation Xrotation Yrotation
      JOINT right_tibia_foot
      {
        OFFSET 3.006224 -47.83518 -5
        CHANNELS 3 Zrotation Xrotation Yrotation
        End Site
        {
          OFFSET 0 -5 15
        }
      }
    }
  }
  JOINT pelvis_left_femur
  {
    OFFSET 10.78128 -3.44521 -0.5502486
    CHANNELS 3 Zrotation Xrotation Yrotation
    JOINT left_femur_tibia
    {
      OFFSET 0.8047443 -44.0398 -0.1307829
      CHANNELS 3 Zrotation Xrotation Yrotation
      JOINT left_tibia_foot
      {
        OFFSET -4.370144 -48.10324 -4.275266
        CHANNELS 3 Zrotation Xrotation Yrotation
        End Site
        {
          OFFSET 0 -5 15
        }
      }
    }
  }
  JOINT pelvis_spine1
  {
    OFFSET 0 6.468898 -3.129235
    CHANNELS 3 Zrotation Xrotation Yrotation
    JOINT spine1
    {
      OFFSET 0 23.15396 4.99043
      CHANNELS 3 Zrotation Xrotation Yrotation
      JOINT spine2
      {
        OFFSET 0 20.79997 -5.064912
        CHANNELS 3 Zrotation Xrotation Yrotation
        JOINT neck
        {
          OFFSET 0 14.38658 9.616178
          CHANNELS 3 Zrotation Xrotation Yrotation
          End Site
          {
            OFFSET 0 20 0
          }
        }
      }
      JOINT right_manubrium
      {
        OFFSET -5.722621 16.35077 3.967754
        CHANNELS 3 Zrotation Xrotation Yrotation
        JOINT right_clavicle
        {
          OFFSET -13.16364 1.694482 -4.693211
          CHANNELS 3 Zrotation Xrotation Yrotation
          JOINT right_humerus
          {
            OFFSET -28.5034 -0.3100689 -2.792744
            CHANNELS 3 Zrotation Xrotation Yrotation
            JOINT right_radius
            {
              OFFSET -25.15693 0.02248979 -1.271978
              CHANNELS 3 Zrotation Xrotation Yrotation
              End Site
              {
                OFFSET -15 0 0
              }
            }
          }
        }
      }
      JOINT left_manubrium
      {
        OFFSET 5.722621 16.35077 3.967754
        CHANNELS 3 Zrotation Xrotation Yrotation
        JOINT left_clavicle
        {
          OFFSET 13.16364 1.694482 -4.693211
          CHANNELS 3 Zrotation Xrotation Yrotation
          JOINT left_humerus
          {
            OFFSET 29.39168 -1.063119 -2.237045
            CHANNELS 3 Zrotation Xrotation Yrotation
            JOINT left_radius
            {
              OFFSET 24.59957 -0.9528479 0.9047498
              CHANNELS 3 Zrotation Xrotation Yrotation
              End Site
              {
                OFFSET 15 -0 -0
              }
            }
          }
        }
      }
    }
  }
}
MOTION
Frames: 19
Frame Time: 0.0416666666667
-228.2096 99.76537 2985.164 -0.07823884 -1.837891 -18.47246 2.903674 -29.57397 -0.4935397 -0 5.697973 -0 -2.284858 4.656149 -4.713698 -5.227993 16.85722 -7.407537 -0 19.46897 -0 -1.517961 -19.64954 12.33138 -1.838488 -1.484557 5.13748 2.137831 11.49448 -7.699782 0.8598616 21.7157 7.053389 3.443678 -24.60826 8.622035 2.911547 -20.10927 12.61852 87.51418 31.03373 -17.43924 -0 0 15.07406 -15.55073 9.674818 5.571512 7.051178 -22.25372 -1.074788 -91.06347 17.90158 18.40587 0 0 -12.5644 15.08831 13.21684 -7.894435
-230.574 99.18836 2991.652 -0.3680844 -1.382813 -18.32801 4.43894 -28.95943 1.074943 -0 5.847085 -0 -1.617056 5.227244 -5.120723 -4.844257 17.10667 -6.961162 -0 26.36238 -0 -2.573194 -17.30715 11.72175 -1.851427 -1.428035 5.034664 2.212304 11.39887 -7.728697 0.8482842 21.65507 7.156219 3.494184 -24.73854 8.70501 3.013255 -19.94097 12.59097 87.56585 31.23089 -17.62327 -0 0 14.78494 -15.27434 9.678077 5.571142 7.049195 -22.27506 -1.103086 -90.90179 18.02095 18.07901 0 0 -13.1672 15.04199 13.02311 -7.705104
-233.0889 99.28229 2998.395 -0.9085567 -1.159648 -18.36331 6.103499 -26.64002 2.981501 -0 7.999899 -0 -1.244406 5.031303 -5.504445 -4.213178 16.10327 -6.719396 -0 34.80652 -0 -4.203326 -14.02647 11.12907 -1.863368 -1.373013 4.932403 2.286606 11.30082 -7.758388 0.8357198 21.59129 7.257959 3.542992 -24.86717 8.786426 3.109725 -19.77719 12.56233 87.61796 31.42736 -17.80569 -0 0 14.5011 -15.00586 9.683241 5.57888 7.048298 -22.29441 -1.131328 -90.73448 18.13739 17.75588 0 0 -13.77636 14.99251 12.82303 -7.511712
-235.6503 100.0812 3005.185 -1.481869 -1.173189 -18.63513 7.381653 -22.69176 4.721703 -0 10.95034 -0 -1.240145 3.702503 -5.728884 -3.510957 13.49447 -6.685883 -0 43.92335 -0 -6.040407 -10.32205 10.73196 -1.874299 -1.319743 4.831467 2.360004 11.20112 -7.788596 0.8222074 21.52476 7.357994 3.589973 -24.99273 8.86547 3.200733 -19.61853 12.5328 87.67026 31.62234 -17.98564 -0 0 14.2239 -14.74767 9.690806 5.595228 7.048348 -22.31166 -1.159591 -90.56264 18.2509 17.43868 0 0 -14.38801 14.93878 12.61743 -7.31335
-238.1363 101.431 3011.778 -1.826782 -1.492818 -19.1504 7.817882 -17.58861 5.78266 -0 13.17115 -0 -1.634547 1.365926 -5.632825 -3.004922 9.169377 -6.788972 -0 52.36746 -0 -7.436739 -7.032737 10.74491 -1.88421 -1.268435 4.732648 2.431731 11.10075 -7.819039 0.8078082 21.45597 7.455666 3.635008 -25.11376 8.941287 3.286142 -19.46552 12.50261 87.72254 31.81493 -18.16232 -0 0 13.95464 -14.50214 9.701276 5.620558 7.049126 -22.32672 -1.187999 -90.38757 18.3616 17.12973 0 0 -14.99785 14.87961 12.40729 -7.109043
-240.4669 103.0253 3017.986 -1.807727 -2.215359 -19.8303 7.329711 -12.00081 5.921497 -0 13.61992 -0 -2.366134 -1.35539 -5.10783 -2.832825 3.401258 -6.898186 -0 58.59865 -0 -7.87683 -4.969662 11.32585 -1.893093 -1.219241 4.636733 2.501017 11.00074 -7.849431 0.7926057 21.38551 7.550299 3.677984 -25.22879 9.013014 3.365923 -19.31859 12.47205 87.77464 32.00419 -18.335 -0 0 13.69451 -14.27152 9.715131 5.655085 7.050338 -22.3395 -1.216715 -90.21072 18.46963 16.83137 0 0 -15.60127 14.81382 12.19378 -6.897806
-242.6406 104.5205 3023.74 -1.531905 -3.273927 -20.53859 6.316015 -6.39537 5.337069 -0 12.42605 -0 -3.236753 -3.889351 -4.220219 -2.764879 -3.22953 -6.81169 -0 61.23211 -0 -7.471643 -4.369557 12.53092 -1.900941 -1.172258 4.544461 2.56713 10.90219 -7.879488 0.776705 21.31401 7.641227 3.718803 -25.33641 9.079823 3.440155 -19.17803 12.44141 87.82649 32.18913 -18.50306 -0 0 13.44451 -14.05784 9.732805 5.698835 7.051631 -22.34996 -1.245928 -90.03366 18.5752 16.54583 0 0 -16.19356 14.74027 11.97815 -6.678706
-244.7014 105.6225 3029.085 -1.265379 -4.345586 -21.18252 5.399754 -0.9726781 4.517308 -0 10.57478 -0 -3.990387 -6.245743 -3.23661 -2.296953 -10.00854 -6.28806 -0 59.30314 -0 -6.790445 -4.760116 14.23964 -1.907752 -1.127527 4.456498 2.629407 10.8062 -7.908947 0.7602293 21.24215 7.727822 3.757384 -25.43535 9.140957 3.509033 -19.04402 12.41101 87.87804 32.36882 -18.66605 -0 0 13.20542 -13.86278 9.754657 5.751643 7.05261 -22.35804 -1.275841 -89.85796 18.67857 16.27517 0 0 -16.77011 14.65794 11.76177 -6.450918
-246.6706 106.1132 3034.147 -1.235669 -5.090528 -21.77157 4.978302 4.041082 3.802398 -0 8.967747 -0 -4.522069 -8.750971 -2.413717 -1.124258 -16.16134 -5.256475 -0 52.72527 -0 -6.146826 -5.445422 16.10267 -1.913527 -1.085034 4.373415 2.687282 10.71381 -7.937564 0.7433151 21.17062 7.809514 3.793662 -25.52453 9.195762 3.572847 -18.9166 12.38114 87.92932 32.54234 -18.82363 -0 0 12.9778 -13.68764 9.780952 5.813166 7.052854 -22.36374 -1.306662 -89.68518 18.78002 16.02118 0 0 -17.32661 14.56596 11.54598 -6.21376
-248.5325 105.9013 3039.095 -1.493265 -5.378108 -22.35848 5.014679 8.368359 3.223226 -0 8.07143 -0 -4.887214 -11.44742 -1.792253 0.5312478 -21.00759 -3.987203 -0 42.75507 -0 -5.437425 -5.942436 17.66966 -1.918278 -1.04472 4.295679 2.740293 10.62599 -7.965122 0.7261056 21.10008 7.885812 3.827596 -25.60305 9.243699 3.631962 -18.79569 12.35209 87.98036 32.70889 -18.9756 -0 0 12.76199 -13.53332 9.81186 5.882918 7.051937 -22.36706 -1.338586 -89.51683 18.87984 15.78536 0 0 -17.85912 14.46365 11.33211 -5.966712
-250.2796 105.0852 3044.126 -1.903385 -5.238741 -22.96782 5.184563 11.86327 2.742384 -0 8.129927 -0 -5.078662 -13.94317 -1.269421 2.087655 -24.16339 -2.942501 -0 31.70032 -0 -4.547027 -6.029342 18.59805 -1.92202 -1.006489 4.223654 2.788088 10.54358 -7.991425 0.7087455 21.03116 7.956306 3.85916 -25.67025 9.284351 3.686798 -18.68113 12.32413 88.03119 32.86775 -19.12185 -0 0 12.55816 -13.40035 9.847447 5.960306 7.04944 -22.36801 -1.371791 -89.35426 18.97833 15.56891 0 0 -18.36421 14.35049 11.1214 -5.709408
-251.9512 103.9295 3049.436 -2.23971 -4.795942 -23.58575 5.106262 14.58853 2.371178 -0 9.261261 -0 -5.027522 -15.65748 -0.7556588 2.956106 -25.62149 -2.517438 -0 22.0675 -0 -3.598311 -5.753912 18.83923 -1.924783 -0.9702144 4.157603 2.830416 10.4673 -8.016296 0.6913747 20.96444 8.020679 3.888349 -25.72566 9.317423 3.737802 -18.57267 12.29747 88.08183 33.01832 -19.26233 -0 0 12.3663 -13.28892 9.887684 6.044676 7.044965 -22.3666 -1.406428 -89.19873 19.07577 15.37271 0 0 -18.83899 14.22613 10.91498 -5.441635
-253.627 102.7446 3055.161 -2.313309 -4.28022 -24.1805 4.519769 16.82773 2.08696 -0 11.45477 -0 -4.811293 -16.12125 -0.2369686 2.801286 -25.77307 -2.897541 -0 15.64719 -0 -2.912709 -5.455092 18.73002 -1.926606 -0.9357524 4.097701 2.867124 10.39773 -8.039578 0.6741248 20.90045 8.0787 3.915175 -25.769 9.342734 3.785436 -18.47002 12.2723 88.13227 33.16012 -19.39703 -0 0 12.18625 -13.19891 9.932456 6.135343 7.038148 -22.36284 -1.442619 -89.05129 19.17242 15.19737 0 0 -19.28115 14.09039 10.71383 -5.163319
-255.3888 101.7651 3061.337 -2.074236 -3.995622 -24.71264 3.390915 18.90755 1.848088 -0 14.72716 -0 -4.641285 -15.02247 0.220274 1.633118 -25.18917 -4.033019 -0 12.92501 -0 -2.766082 -5.566473 18.80525 -1.927537 -0.9029492 4.044027 2.898161 10.33529 -8.061134 0.6571155 20.83963 8.130233 3.939669 -25.8002 9.360225 3.830156 -18.37285 12.24878 88.18246 33.29277 -19.52595 -0 0 12.01779 -13.12994 9.981568 6.231616 7.02867 -22.35674 -1.480447 -88.91284 19.2685 15.04319 0 0 -19.68899 13.94323 10.51877 -4.874526
-257.2795 101.1291 3067.904 -1.611616 -4.173193 -25.11796 1.897519 20.75058 1.709988 -0 19.31582 -0 -4.603661 -12.0143 0.5062766 -0.255114 -24.16122 -5.645336 -0 13.19175 -0 -3.036003 -6.269644 19.35408 -1.927639 -0.8716499 3.996568 2.92357 10.28024 -8.080856 0.6404524 20.78235 8.175238 3.961879 -25.81936 9.369949 3.872402 -18.28081 12.227 88.2323 33.41609 -19.64915 -0 0 11.86053 -13.08133 10.03475 6.332813 7.016273 -22.34834 -1.519956 -88.78404 19.36422 14.91015 0 0 -20.06153 13.78479 10.33047 -4.575479
-259.2807 100.9414 3074.746 -1.074871 -4.803209 -25.294 0.3663086 21.55671 1.789348 -0 25.61606 -0 -4.562057 -6.80678 0.5207658 -2.375453 -22.47057 -7.236203 -0 15.13271 -0 -3.11242 -7.327266 20.14772 -1.926981 -0.8417061 3.955211 2.943502 10.23265 -8.098673 0.6242259 20.72885 8.213771 3.981868 -25.8268 9.372082 3.912588 -18.19351 12.20704 88.28167 33.53002 -19.76669 -0 0 11.714 -13.05217 10.09167 6.438272 7.000771 -22.33768 -1.561146 -88.66529 19.45969 14.7979 0 0 -20.39849 13.61541 10.14937 -4.266566
-261.3168 101.3065 3081.693 -0.6356204 -5.626974 -25.13503 -0.7671882 20.13554 2.066114 -0 33.76276 -0 -4.380317 0.1624822 0.1877377 -4.173503 -19.64822 -8.27409 -0 17.3807 -0 -2.370244 -8.302558 20.66728 -1.925639 -0.812982 3.919746 2.95821 10.19243 -8.114559 0.6085094 20.6793 8.245986 3.999716 -25.82302 9.366914 3.951091 -18.11055 12.18888 88.33042 33.63466 -19.87872 -0 0 11.57763 -13.04126 10.15194 6.547352 6.98206 -22.32481 -1.603976 -88.55677 19.55502 14.70572 0 0 -20.70035 13.43559 9.97577 -3.948347
-263.283 102.2537 3088.5 -0.4913652 -6.334966 -24.60472 -1.127523 15.81284 2.334536 -0 42.93707 -0 -4.166858 7.152688 -0.5152857 -5.275388 -15.46402 -8.58422 -0 18.86639 -0 -0.8284767 -9.012662 20.57692 -1.923694 -0.7853578 3.889874 2.968035 10.15931 -8.128533 0.59336 20.63374 8.27212 4.015516 -25.80865 9.35483 3.988245 -18.03152 12.17252 88.37836 33.73028 -19.9854 -0 0 11.45074 -13.04724 10.21514 6.659452 6.960115 -22.30983 -1.648368 -88.45836 19.6502 14.6326 0 0 -20.96826 13.246 9.809759 -3.621529
-265.0888 103.615 3094.899 -0.7780995 -6.786992 -23.78164 -0.7189864 9.120343 2.40436 -0 50.91257 -0 -4.24209 11.79892 -1.457866 -5.654734 -10.27108 -8.504113 -0 19.03759 -0 0.7530273 -9.727532 19.94575 -1.92123 -0.7587292 3.865236 2.973371 10.13292 -8.140645 0.5788177 20.59215 8.292469 4.029366 -25.78446 9.33628 4.024331 -17.95605 12.15788 88.42531 33.81722 -20.08693 -0 0 11.33261 -13.06865 10.28083 6.774029 6.934976 -22.29283 -1.694217 -88.36978 19.74521 14.57733 0 0 -21.20389 13.04741 9.651297 -3.286909
